<?xml version="1.0" encoding="UTF-8" standalone="no"?>
<!DOCTYPE svg PUBLIC "-//W3C//DTD SVG 1.1//EN" "http://www.w3.org/Graphics/SVG/1.1/DTD/svg11.dtd">
<svg width="100%" height="100%" viewBox="0 0 3000 3000" version="1.1" xmlns="http://www.w3.org/2000/svg" xmlns:xlink="http://www.w3.org/1999/xlink" xml:space="preserve" xmlns:serif="http://www.serif.com/" style="fill-rule:evenodd;clip-rule:evenodd;stroke-linejoin:round;stroke-miterlimit:2;">
    <rect x="0" y="0" width="3000" height="3000" style="fill:rgb(7,2,24);"/>
    <g transform="matrix(1.03546,0,0,1.03546,-496.499,-304.554)">
        <g transform="matrix(830.13,0,0,830.13,732.737,1576.73)">
            <path d="M0.168,-0L0.328,-0L0.452,-0.7L0.154,-0.7L0.131,-0.57L0.269,-0.57L0.168,-0Z" style="fill:rgb(223,233,248);fill-rule:nonzero;"/>
        </g>
        <g transform="matrix(830.13,0,0,830.13,1047.36,1576.73)">
            <path d="M0.631,-0.582L0.532,-0.7L0.274,-0.7L0.133,-0.58L0.1,-0.395L0.199,-0.275L0.417,-0.275L0.391,-0.13L0.086,-0.13L0.063,-0L0.407,-0L0.549,-0.118L0.631,-0.582ZM0.469,-0.57L0.44,-0.405L0.262,-0.405L0.291,-0.57L0.469,-0.57Z" style="fill:rgb(223,233,248);fill-rule:nonzero;"/>
        </g>
        <g transform="matrix(830.13,0,0,830.13,1511.4,1576.73)">
            <path d="M0.03,-0L0.19,-0L0.238,-0.272L0.324,-0.272L0.404,-0L0.588,-0L0.472,-0.367L0.692,-0.7L0.508,-0.7L0.318,-0.402L0.261,-0.402L0.314,-0.7L0.154,-0.7L0.03,-0Z" style="fill:rgb(223,233,248);fill-rule:nonzero;"/>
        </g>
        <g transform="matrix(830.13,0,0,830.13,1999.51,1576.73)">
            <path d="M0.03,-0L0.19,-0L0.24,-0.285L0.443,-0.285L0.393,-0L0.553,-0L0.677,-0.7L0.517,-0.7L0.467,-0.415L0.264,-0.415L0.314,-0.7L0.154,-0.7L0.03,-0Z" style="fill:rgb(223,233,248);fill-rule:nonzero;"/>
        </g>
        <g transform="matrix(830.13,0,0,830.13,2484.31,1576.73)">
            <path d="M0.131,-0.57L0.424,-0.57L0.053,-0.13L0.03,-0L0.515,-0L0.538,-0.13L0.245,-0.13L0.616,-0.57L0.639,-0.7L0.154,-0.7L0.131,-0.57Z" style="fill:rgb(223,233,248);fill-rule:nonzero;"/>
        </g>
        <g transform="matrix(830.13,0,0,830.13,1040.3,2489.87)">
            <path d="M0.03,-0L0.19,-0L0.314,-0.7L0.154,-0.7L0.03,-0Z" style="fill:rgb(220,0,142);fill-rule:nonzero;"/>
        </g>
        <g transform="matrix(830.13,0,0,830.13,1223.76,2489.87)">
            <path d="M0.03,-0L0.19,-0L0.259,-0.391L0.393,-0L0.553,-0L0.677,-0.7L0.517,-0.7L0.448,-0.309L0.314,-0.7L0.154,-0.7L0.03,-0Z" style="fill:rgb(220,0,142);fill-rule:nonzero;"/>
        </g>
        <g transform="matrix(830.13,0,0,830.13,1708.55,2489.87)">
            <path d="M0.19,-0L0.241,-0.285L0.5,-0.285L0.522,-0.415L0.264,-0.415L0.291,-0.57L0.596,-0.57L0.619,-0.7L0.275,-0.7L0.133,-0.582L0.03,-0L0.19,-0Z" style="fill:rgb(220,0,142);fill-rule:nonzero;"/>
        </g>
        <g transform="matrix(830.13,0,0,830.13,2145.2,2489.87)">
            <path d="M0.03,-0L0.553,-0L0.677,-0.7L0.154,-0.7L0.03,-0ZM0.213,-0.13L0.291,-0.57L0.494,-0.57L0.416,-0.13L0.213,-0.13Z" style="fill:rgb(220,0,142);fill-rule:nonzero;"/>
        </g>
    </g>
</svg>
